<svg viewBox="0 0 100 100" width="400" height="400" xmlns="http://www.w3.org/2000/svg" data-fg-d3bl1="0.8:2.1599:/src/app/App.tsx:22:7:748:1370:e:svg:etxtetxtetxtxtxte" data-fgid-d3bl1=":r1:" id="logo-svg"><defs data-fg-d3bl2="0.8:2.1599:/src/app/App.tsx:29:9:905:114:e:defs:e"><clipPath id="shield-clip" data-fg-d3bl3="0.8:2.1599:/src/app/App.tsx:30:11:922:81:e:clipPath:e"><path d="M 20 16 L 80 16 L 80 58 L 50 84 L 20 58 Z" data-fg-d3bl4="0.8:2.1599:/src/app/App.tsx:31:13:962:19:e:path"></path></clipPath></defs><path d="M 20 16 L 80 16 L 80 58 L 50 84 L 20 58 Z" fill="#002868" data-fg-d3bl6="0.8:2.1599:/src/app/App.tsx:36:9:1069:34:e:path"></path><g clip-path="url(#shield-clip)" data-fg-d3bl8="0.8:2.1599:/src/app/App.tsx:39:9:1173:407:e:g:etetetete"><rect x="16" y="43" width="68" height="8.5" fill="#BF0A30" data-fg-d3bl9="0.8:2.1599:/src/app/App.tsx:40:11:1216:61:e:rect"></rect><rect x="16" y="51.5" width="68" height="8.5" fill="#FFFFFF" data-fg-d3bl10="0.8:2.1599:/src/app/App.tsx:41:11:1288:63:e:rect"></rect><rect x="16" y="60" width="68" height="8.5" fill="#BF0A30" data-fg-d3bl11="0.8:2.1599:/src/app/App.tsx:42:11:1362:61:e:rect"></rect><rect x="16" y="68.5" width="68" height="8.5" fill="#FFFFFF" data-fg-d3bl12="0.8:2.1599:/src/app/App.tsx:43:11:1434:63:e:rect"></rect><rect x="16" y="77" width="68" height="9" fill="#BF0A30" data-fg-d3bl13="0.8:2.1599:/src/app/App.tsx:44:11:1508:59:e:rect"></rect></g><path d="M 0,-3.5 L 0.926,-1.274 L 3.328,-1.082 L 1.499,0.487 L 2.058,2.832 L 0,1.575 L -2.058,2.832 L -1.499,0.487 L -3.328,-1.082 L -0.926,-1.274 Z" transform="translate(26, 30)" fill="#FFFFFF" data-fg-d3bl16="0.8:2.1599:/src/app/App.tsx:49:11:1674:132:e:path"></path><path d="M 0,-3.5 L 0.926,-1.274 L 3.328,-1.082 L 1.499,0.487 L 2.058,2.832 L 0,1.575 L -2.058,2.832 L -1.499,0.487 L -3.328,-1.082 L -0.926,-1.274 Z" transform="translate(37, 30)" fill="#FFFFFF" data-fg-d3bl16="0.8:2.1599:/src/app/App.tsx:49:11:1674:132:e:path"></path><path d="M 0,-3.5 L 0.926,-1.274 L 3.328,-1.082 L 1.499,0.487 L 2.058,2.832 L 0,1.575 L -2.058,2.832 L -1.499,0.487 L -3.328,-1.082 L -0.926,-1.274 Z" transform="translate(50, 30)" fill="#FFFFFF" data-fg-d3bl16="0.8:2.1599:/src/app/App.tsx:49:11:1674:132:e:path"></path><path d="M 0,-3.5 L 0.926,-1.274 L 3.328,-1.082 L 1.499,0.487 L 2.058,2.832 L 0,1.575 L -2.058,2.832 L -1.499,0.487 L -3.328,-1.082 L -0.926,-1.274 Z" transform="translate(63, 30)" fill="#FFFFFF" data-fg-d3bl16="0.8:2.1599:/src/app/App.tsx:49:11:1674:132:e:path"></path><path d="M 0,-3.5 L 0.926,-1.274 L 3.328,-1.082 L 1.499,0.487 L 2.058,2.832 L 0,1.575 L -2.058,2.832 L -1.499,0.487 L -3.328,-1.082 L -0.926,-1.274 Z" transform="translate(74, 30)" fill="#FFFFFF" data-fg-d3bl16="0.8:2.1599:/src/app/App.tsx:49:11:1674:132:e:path"></path><path d="M 28,51 L 36,44 L 43,52 L 64,30 L 72,37 L 43,68 Z" fill="#FFFFFF" stroke="#002868" stroke-width="1.5" stroke-linejoin="round" data-fg-d3bl18="0.8:2.1599:/src/app/App.tsx:58:9:1912:193:e:path"></path></svg>